<svg xmlns="http://www.w3.org/2000/svg" viewBox="0 0 100 100" fill="none">
  <defs>
    <linearGradient id="truckGrad" x1="0%" y1="0%" x2="100%" y2="100%">
      <stop offset="0%" style="stop-color:#f59e0b;stop-opacity:1" />
      <stop offset="100%" style="stop-color:#ea580c;stop-opacity:1" />
    </linearGradient>
  </defs>
  <!-- Truck body -->
  <rect x="10" y="35" width="50" height="30" rx="4" fill="url(#truckGrad)"/>
  <!-- Truck cabin -->
  <path d="M60 45 L60 65 L80 65 L80 55 L70 45 Z" fill="url(#truckGrad)"/>
  <!-- Window -->
  <rect x="62" y="48" width="12" height="10" rx="2" fill="white" opacity="0.9"/>
  <!-- Wheels -->
  <circle cx="25" cy="68" r="8" fill="#1f2937"/>
  <circle cx="25" cy="68" r="4" fill="#6b7280"/>
  <circle cx="70" cy="68" r="8" fill="#1f2937"/>
  <circle cx="70" cy="68" r="4" fill="#6b7280"/>
  <!-- Package boxes on truck -->
  <rect x="15" y="40" width="12" height="12" rx="2" fill="white" opacity="0.8"/>
  <rect x="30" y="40" width="12" height="12" rx="2" fill="white" opacity="0.6"/>
  <rect x="45" y="40" width="10" height="12" rx="2" fill="white" opacity="0.7"/>
  <!-- GPS signal -->
  <circle cx="75" cy="30" r="3" fill="#22c55e"/>
  <path d="M75 27 C75 27 68 20 75 13" stroke="#22c55e" stroke-width="2" fill="none" stroke-linecap="round"/>
  <path d="M75 27 C75 27 82 20 75 13" stroke="#22c55e" stroke-width="2" fill="none" stroke-linecap="round"/>
  <!-- Location pin -->
  <path d="M20 20 L20 10 C20 5 25 5 25 10 L25 20" stroke="#f59e0b" stroke-width="2" fill="none"/>
  <circle cx="22.5" cy="8" r="4" fill="#f59e0b"/>
</svg>
